<svg width="52" height="26" viewBox="0 0 52 26" fill="none" xmlns="http://www.w3.org/2000/svg">
<path fill-rule="evenodd" clip-rule="evenodd" d="M16.6556 8.64203C16.6556 3.86917 13.0056 5.72205e-06 8.50323 5.72205e-06C4.00082 5.72205e-06 0.350891 3.86917 0.350891 8.64203C0.350891 13.4149 4.00082 17.2841 8.50323 17.2841C13.0056 17.2841 16.6556 13.4149 16.6556 8.64203Z" fill="url(#paint0_linear)"/>
<path fill-rule="evenodd" clip-rule="evenodd" d="M1.90735e-05 16.3746C1.90735e-05 21.1474 3.64994 25.0166 8.15235 25.0166C12.6548 25.0166 16.3047 21.1474 16.3047 16.3746C16.3047 11.6017 12.6548 7.73256 8.15235 7.73256C3.64994 7.73256 1.90735e-05 11.6017 1.90735e-05 16.3746Z" fill="url(#paint1_linear)"/>
<path fill-rule="evenodd" clip-rule="evenodd" d="M22.997 18.6549C24.4602 19.4744 26.3094 19.994 28.5854 19.994C31.8165 19.994 33.9706 17.7556 33.9706 14.9177C33.9706 13.1789 33.3 11.9198 31.0646 10.9006L27.5897 9.28175C26.5126 8.76213 26.1672 8.14258 26.1672 7.48306C26.1672 6.82354 26.6955 6.08407 28.179 6.08407C29.9469 6.08407 31.7556 7.26322 32.5684 9.72143H32.67L34.1332 6.44381C32.9342 5.78429 30.8208 5.20471 28.9918 5.20471C24.9275 5.20471 23.5254 7.58299 23.5254 9.7614C23.5254 11.5201 24.5618 13.1589 26.5533 14.0783L29.9266 15.5972C31.1053 16.1168 31.3695 16.7164 31.3695 17.3559C31.3695 18.4151 30.5159 19.0746 29.3576 19.0746C27.3052 19.0746 25.0901 17.6357 24.3789 14.8377H24.2773L22.997 18.6549ZM43.0869 15.857C42.5382 16.6164 41.7863 16.9162 40.7702 16.9162C38.9616 16.9162 37.7423 15.7571 37.4375 13.4987H43.2901C43.2901 9.70145 40.8312 8.8021 39.1039 8.8021C36.3401 8.8021 34.3283 11.2004 34.3283 14.5579C34.3283 18.0554 36.6246 19.894 38.9616 19.894C40.5873 19.894 42.7008 18.9747 43.2494 15.8969L43.0869 15.857ZM38.6568 9.46162C37.8236 9.46162 37.3562 10.5209 37.3562 12.3195C37.3562 12.5194 37.3562 12.6993 37.3765 12.8791H39.8964C39.8964 10.2411 39.4696 9.46162 38.6568 9.46162ZM51.1464 16.9362L50.9635 16.8762C50.7806 17.3759 50.3336 17.8955 49.541 17.8955C48.8298 17.8955 48.4437 17.3359 48.4437 16.4765V9.64149H50.3132V9.14185H48.4437V5.64439H48.4233C47.563 6.38339 46.6852 7.07647 45.8149 7.76363C45.0611 8.35872 44.313 8.94937 43.5868 9.56155V9.66148H44.5826V17.0161C44.5826 18.6749 45.4361 19.894 47.3666 19.894C49.4801 19.894 50.6994 18.4151 51.1464 16.9362Z" fill="white"/>
<defs>
<linearGradient id="paint0_linear" x1="0.350891" y1="17.2841" x2="16.6556" y2="17.2841" gradientUnits="userSpaceOnUse">
<stop stop-color="white"/>
<stop offset="1" stop-color="#3100FF" stop-opacity="0.01"/>
</linearGradient>
<linearGradient id="paint1_linear" x1="16.3047" y1="7.73256" x2="1.90735e-05" y2="7.73256" gradientUnits="userSpaceOnUse">
<stop stop-color="white"/>
<stop offset="1" stop-color="#3100FF" stop-opacity="0.01"/>
</linearGradient>
</defs>
</svg>
