<?xml version="1.0" encoding="UTF-8"?>
<svg width="650px" height="575px" viewBox="0 0 650 575" version="1.1" xmlns="http://www.w3.org/2000/svg" xmlns:xlink="http://www.w3.org/1999/xlink">
    <!-- Generator: Sketch 59.1 (86144) - https://sketch.com -->
    <title>HEADER IMAGENEWWWWWW </title>
    <desc>Created with Sketch.</desc>
    <defs>
        <polygon id="path-1" points="0 0.0248149345 635.412495 0.0248149345 635.412495 517.900776 0 517.900776"></polygon>
    </defs>
    <g id="Page-1" stroke="none" stroke-width="1" fill="none" fill-rule="evenodd">
        <g id="Group-3">
            <g id="Group-6">
                <path d="M571.941825,282.024361 C571.941825,421.998717 458.473027,535.472722 318.502909,535.472722 C178.531019,535.472722 65.0622214,421.998717 65.0622214,282.024361 C65.0622214,142.050004 178.531019,28.576 318.502909,28.576 C458.473027,28.576 571.941825,142.050004 571.941825,282.024361" id="Fill-1" fill="#6EE1FF" opacity="0.9398484"></path>
                <g id="Group-5">
                    <mask id="mask-2" fill="white">
                        <use xlink:href="#path-1"></use>
                    </mask>
                    <g id="Clip-4"></g>
                    <path d="M626.056732,305.529829 C607.580371,270.789961 604.369325,229.822635 617.256019,192.073537 C625.605095,167.615352 626.910413,129.834373 620.020743,104.763361 C597.879928,24.2173102 495.484195,-23.7727338 396.752916,12.0829758 C306.229023,44.9577943 284.065183,180.592767 214.557442,165.847717 C51.0756592,131.168069 -7.80711235,247.699125 0.816487928,342.561601 C6.38667131,403.837244 57.7758194,479.625913 167.548282,471.668014 C199.867744,469.324747 231.608048,477.270248 258.959508,493.08863 C305.669348,520.102624 379.911302,526.436353 457.038417,505.235363 C573.048777,473.345319 651.631755,391.245946 632.560297,321.861854 C630.991082,316.148036 628.807286,310.699895 626.056732,305.529829" id="Fill-3" fill="#7191F8" opacity="0.676106771" mask="url(#mask-2)"></path>
                </g>
            </g>
            <path d="M484.980073,37.6289669 C485.127052,35.1519977 489.410698,30.1041541 488.759031,29.4733951 C488.28799,29.0198156 486.621635,30.5789951 485.720281,31.4914695 C485.615802,31.5977772 485.458198,31.6332131 485.316531,31.581831 C485.176635,31.530449 485.07924,31.4028797 485.066844,31.2522772 C484.872052,28.817831 484.262885,22.0070515 483.582885,21.9432669 C482.895802,21.8777105 482.55049,26.1867156 482.454865,27.6342721 C482.451323,27.6785669 482.417677,27.7140028 482.375177,27.7193182 C482.330906,27.7246336 482.290177,27.6998285 482.27601,27.6573054 C481.74476,26.1264746 479.95976,21.1849387 479.19299,21.8210131 C478.465177,22.4234233 479.594969,27.1558874 480.06424,28.9772926 C480.074865,29.0215874 480.051844,29.0694259 480.009344,29.0853721 C479.966844,29.10309 479.91726,29.0853721 479.89424,29.0463926 C478.971635,27.4145695 476.540281,23.2792003 475.885073,23.8071951 C475.215698,24.3458208 477.099865,28.8284618 477.797573,30.4195336 C477.815281,30.4602849 477.801115,30.5098951 477.762156,30.5347003 C477.723198,30.5577336 477.673615,30.5506464 477.64351,30.5169823 C476.589865,29.3281079 473.834448,26.2965669 473.850317,27.1860079 C473.868094,28.2880644 478.709552,37.4482438 480.296219,38.9808464 C481.881115,40.5152208 484.980073,37.6289669 484.980073,37.6289669" id="Fill-7" fill="#FA968C"></path>
            <path d="M528.446948,68.2881054 C525.165594,75.5630951 520.442781,83.8267464 514.731844,89.4982618 C503.621635,100.501108 489.362885,97.6254849 484.386844,71.8954797 C483.520906,68.0187926 482.915281,64.1580515 482.407052,60.3043977 C481.372885,52.6077208 480.972677,44.9340772 480.61851,37.2834669 C480.565385,36.1247131 481.459656,35.1431387 482.617781,35.0882131 C483.666115,35.0403746 484.56924,35.7703541 484.771115,36.7678746 L484.779969,36.8103977 C486.285177,44.2377618 487.79924,51.6509515 489.740073,58.8621567 C490.738823,62.4535849 491.77299,66.0166644 492.978927,69.4521746 C494.023719,72.7034182 498.224135,82.8097362 501.489552,83.7983977 C501.597573,83.7806797 501.703823,83.9224233 501.765802,83.8604105 C501.82601,83.8054849 501.856115,83.8001695 501.893302,83.8338336 C501.955281,83.752331 501.99601,83.7168951 502.049135,83.7275259 C502.22799,83.5822387 502.438719,83.5574336 502.826531,83.2438259 C503.538406,82.7760721 504.512365,81.8547387 505.43674,80.7066156 C507.331531,78.4582079 509.097052,75.4886797 510.650073,72.4057567 C513.34351,67.17719 514.903615,63.4156695 514.903615,63.4156695 C518.220385,54.3192746 531.972677,58.6761182 528.652365,67.7849156 C528.592156,67.9496926 528.517781,68.1286438 528.446948,68.2881054" id="Fill-9" fill="#FA968C"></path>
            <path d="M506.40574,78.0786895 C506.418135,78.0609715 506.430531,78.0432536 506.442927,78.0255356 C508.119906,75.5698279 509.676469,73.0024972 511.110844,70.3713818 C512.532823,67.8022792 513.981365,64.9479177 514.996052,62.5205587 L515.045635,62.3983049 C515.127094,62.2051792 515.217406,62.0138254 515.318344,61.8242433 C517.204281,58.2399023 521.634906,56.8632177 525.217302,58.7501792 C528.799698,60.6371408 530.175635,65.0719433 528.289698,68.6545126 C526.520635,72.0173792 524.80824,74.7654331 522.85324,77.6587741 C521.528656,79.568769 520.120844,81.4220664 518.670531,83.2452433 C517.590323,82.0918049 508.985844,79.0035664 506.40574,78.0786895" id="Fill-11" fill="#A5A0AA"></path>
            <path d="M513.58399,129.011591 C519.96076,136.332647 556.769302,139.388993 556.769302,139.388993 C559.48576,136.233427 555.515552,121.896063 554.557531,107.340768 C553.521594,91.6036856 552.924823,74.2347805 552.652115,64.8495831 C552.538781,60.9764395 549.37076,57.9041472 545.497948,57.9041472 L522.140656,57.9041472 C518.538781,57.9041472 515.542531,60.6539728 515.245031,64.2436292 C514.632323,71.6745369 513.566281,84.5891497 512.514406,97.2503959 C511.446594,110.097681 508.071385,122.682739 513.58399,129.011591" id="Fill-13" fill="#FAB9AF"></path>
            <path d="M534.818229,251.357925 L534.765104,265.842348 L536.022396,272.897635 C536.240208,274.118402 535.337083,275.248807 534.0975,275.287786 C528.170521,275.468509 512.994479,275.868935 512.588958,275.211599 C510.68,272.123361 519.305729,270.934486 525.615208,268.491181 C531.926458,266.046104 527.571979,242.075491 527.571979,242.075491 L534.818229,251.357925 Z" id="Fill-15" fill="#FA968C"></path>
            <path d="M525.615385,268.490472 C525.649031,268.47807 525.679135,268.455036 525.71101,268.440862 C527.214448,269.002521 528.907365,269.332075 530.814552,269.332075 C532.450802,269.332075 533.93299,269.096426 535.269969,268.676511 L536.022573,272.896926 C536.240385,274.119465 535.33726,275.248098 534.097677,275.287077 C528.170698,275.469572 512.994656,275.869998 512.589135,275.21089 C510.680177,272.122652 519.305906,270.933777 525.615385,268.490472" id="Fill-17" fill="#F57A2F"></path>
            <path d="M513.593375,134.290654 C513.364937,144.357992 517.32275,208.232969 525.140979,208.410518 C532.957437,208.587328 541.67525,145.001154 541.903687,134.933815 C542.132125,124.864705 535.978479,116.560302 528.162021,116.383123 C520.343792,116.204172 513.821812,124.223315 513.593375,134.290654" id="Fill-19" fill="#0091C8"></path>
            <path d="M535.937927,195.141708 C536.713552,200.683883 536.839281,236.192424 535.592615,254.229295 L528.475635,254.229295 C524.654177,236.732821 520.570635,202.820667 519.810948,197.402518 C519.802094,197.331647 519.796781,197.264318 519.787927,197.195218 C515.536156,178.37167 513.425323,141.715006 513.593552,134.291185 C513.82199,124.222075 520.343969,116.204703 528.162198,116.381883 C535.978656,116.560834 542.130531,124.865236 541.902094,134.932575 C541.760427,141.254339 535.571365,192.51768 535.937927,195.141708" id="Fill-21" fill="#FF965A"></path>
            <path d="M534.771656,223.306868 C534.943427,219.456758 534.511344,215.704096 533.56926,212.112668 C530.778427,201.457094 530.69874,190.349712 531.823219,179.392932 C531.917073,178.473371 531.984365,177.548494 532.026865,176.61653 C532.669677,162.272078 524.966552,149.236984 513.728844,141.015855 C513.608427,137.991402 513.562385,135.649089 513.59249,134.290122 C513.820927,124.222784 520.344677,116.205412 528.161135,116.382591 C535.979365,116.559771 542.13124,124.865945 541.902802,134.933284 C541.759365,141.253276 535.570302,192.516617 535.938635,195.142417 C536.71426,200.682819 536.838219,236.191361 535.593323,254.230004 L528.476344,254.230004 C528.028323,252.176494 527.57676,249.880248 527.126969,247.447573 C531.637281,240.436581 534.37676,232.128635 534.771656,223.306868" id="Fill-23" fill="#F07D4B"></path>
            <path d="M551.898271,251.357925 L551.845146,265.842348 L553.102437,272.897635 C553.32025,274.118402 552.417125,275.248807 551.177542,275.287786 C545.250562,275.468509 530.074521,275.868935 529.669,275.211599 C527.760042,272.123361 536.385771,270.934486 542.69525,268.491181 C549.0065,266.046104 544.652021,242.075491 544.652021,242.075491 L551.898271,251.357925 Z" id="Fill-25" fill="#FA968C"></path>
            <path d="M542.695427,268.490472 C542.729073,268.47807 542.759177,268.455036 542.791052,268.440862 C544.29449,269.002521 545.987406,269.332075 547.894594,269.332075 C549.529073,269.332075 551.013031,269.096426 552.35001,268.676511 L553.102615,272.896926 C553.320427,274.119465 552.417302,275.248098 551.177719,275.287077 C545.25074,275.469572 530.074698,275.869998 529.669177,275.21089 C527.760219,272.122652 536.385948,270.933777 542.695427,268.490472" id="Fill-27" fill="#FF8C46"></path>
            <path d="M530.673417,134.290654 C530.444979,144.357992 534.402792,208.232969 542.221021,208.410517 C550.037479,208.587328 557.064146,144.767277 557.292583,134.698166 C557.521021,124.630828 553.058521,116.560302 545.242063,116.383123 C537.423833,116.204172 530.901854,124.223315 530.673417,134.290654" id="Fill-29" fill="#0091C8"></path>
            <path d="M553.017969,195.141708 C553.793594,200.683883 553.919323,236.192424 552.672656,254.229295 L545.555677,254.229295 C541.734219,236.732821 537.648906,202.820667 536.89099,197.402518 C536.882135,197.331647 536.876823,197.264318 536.867969,197.195218 C532.616198,178.37167 528.814219,141.479357 528.982448,134.055536 C529.210885,123.988198 537.42401,116.204703 545.24224,116.381883 C553.058698,116.560834 557.519427,124.631359 557.29276,134.698698 C557.149323,141.01869 552.649635,192.51768 553.017969,195.141708" id="Fill-31" fill="#FFBE82"></path>
            <path d="M521.91824,57.9046787 L525.713135,57.9046787 C527.035948,60.9663403 529.830323,63.3316864 534.168865,63.3316864 C538.51449,63.3316864 541.310635,60.9663403 542.629906,57.9046787 L546.093656,57.9046787 C549.635323,57.9046787 552.534177,60.7058864 552.635115,64.2477044 C552.898969,73.4769838 553.499281,91.260489 554.55824,107.341299 C555.51449,121.894822 559.486469,135.420704 556.77001,139.387753 C556.77001,139.387753 519.961469,136.331407 513.584698,129.012122 C508.072094,122.683271 511.447302,110.098212 512.515115,97.2509274 C513.577615,84.4656556 514.654281,71.4217018 515.263448,64.0280018 C515.548552,60.562371 518.443865,57.9046787 521.91824,57.9046787" id="Fill-33" fill="#828291"></path>
            <path d="M548.4965,78.8630631 C548.832958,71.35774 546.890354,64.2014605 543.354,57.9045015 L546.093479,57.9045015 C549.635146,57.9045015 552.534,60.707481 552.634937,64.2475272 C552.900562,73.4768067 553.499104,91.2603118 554.558062,107.341122 C555.514312,121.894645 559.486292,135.420527 556.769833,139.387576 C556.769833,139.387576 519.961292,136.333002 513.584521,129.011945 C512.132438,127.346458 511.309,125.238022 510.885771,122.814207 C532.268583,119.440709 547.519,100.703978 548.4965,78.8630631" id="Fill-35" fill="#757582"></path>
            <path d="M535.17576,49.3990003 L535.613156,49.496449 C538.947635,50.238831 542.25201,48.1357105 542.99399,44.7994208 L544.977323,35.8713464 L538.503156,34.4308772 L535.17576,49.3990003 Z" id="Fill-37" fill="#41378C"></path>
            <polygon id="Fill-39" fill="#FAB9AF" points="529.391156 57.9045015 541.604594 57.9045015 538.082406 45.72164 529.757719 46.7510528"></polygon>
            <path d="M529.757719,46.7519387 L538.082406,45.7207541 L539.723969,51.3993567 C537.861052,53.5007054 535.09501,56.7643515 532.066885,56.7643515 C531.105323,56.7643515 530.22876,56.4932669 529.44251,55.9936208 L529.757719,46.7519387 Z" id="Fill-41" fill="#FA968C"></path>
            <path d="M528.497417,53.2274946 L528.497417,53.2274946 C533.981687,54.4482613 539.414604,50.9897177 540.634708,45.502469 L543.094396,34.4358382 L526.064292,30.645969 C526.064292,30.645969 524.144708,39.2852408 524.088042,45.3926177 C524.047312,49.9744792 525.703042,52.6055946 528.497417,53.2274946" id="Fill-43" fill="#FAB9AF"></path>
            <polygon id="Fill-45" fill="#41378C" points="539.858375 38.1706046 543.058271 38.8828662 542.735979 40.3339662 539.536083 39.6234764"></polygon>
            <path d="M538.211854,42.7669949 C537.731958,44.9268128 538.376542,46.9059077 539.649771,47.1893949 C540.924771,47.4728821 542.959458,44.9569333 543.439354,42.7971154 C543.91925,40.6372974 542.661958,39.6539513 541.388729,39.3704641 C540.113729,39.0869769 538.69175,40.6071769 538.211854,42.7669949" id="Fill-47" fill="#FAB9AF"></path>
            <path d="M523.871646,34.93513 C523.779563,33.4680838 524.018625,31.9992659 524.571125,30.6385274 C525.939979,27.2579428 529.722479,25.8032992 533.164979,27.0028044 C533.515604,27.1250582 533.88925,27.2313659 534.282375,27.3199556 L540.0305,28.5956479 C543.485396,29.3628351 545.663521,32.7877146 544.894979,36.2427146 L544.597479,37.5839633 L541.190396,39.5612864 L539.800292,41.9815582 L539.575396,41.9301762 C538.47925,41.6874403 537.772688,40.6332223 537.942688,39.5382531 C538.226021,37.7310223 537.328208,35.9663146 535.543208,35.5694326 L530.443208,34.4337121 C527.337167,33.7427121 525.352063,35.0520685 524.83675,37.3766633 L524.558729,39.3770197 L523.871646,34.93513 Z" id="Fill-49" fill="#41378C"></path>
            <line x1="540.160479" y1="100.603872" x2="624.198917" y2="568.469341" id="Stroke-51" stroke="#5046AF" stroke-width="2.067" stroke-linecap="round"></line>
            <line x1="554.323073" y1="568.469518" x2="470.284635" y2="100.604049" id="Stroke-53" stroke="#5046AF" stroke-width="2.067" stroke-linecap="round"></line>
            <line x1="475.852135" y1="121.445141" x2="544.151406" y2="121.445141" id="Stroke-55" stroke="#5046AF" stroke-width="2.067" stroke-linecap="round"></line>
            <line x1="480.392552" y1="152.750276" x2="549.644531" y2="152.750276" id="Stroke-57" stroke="#5046AF" stroke-width="2.067" stroke-linecap="round"></line>
            <line x1="486.704865" y1="184.055588" x2="555.338823" y2="184.055588" id="Stroke-59" stroke="#5046AF" stroke-width="2.067" stroke-linecap="round"></line>
            <line x1="492.808927" y1="215.3609" x2="561.033823" y2="215.3609" id="Stroke-61" stroke="#5046AF" stroke-width="2.067" stroke-linecap="round"></line>
            <line x1="496.507667" y1="246.666035" x2="565.522354" y2="246.666035" id="Stroke-63" stroke="#5046AF" stroke-width="2.067" stroke-linecap="round"></line>
            <line x1="501.292104" y1="277.413231" x2="571.266583" y2="277.413231" id="Stroke-65" stroke="#5046AF" stroke-width="2.067" stroke-linecap="round"></line>
            <line x1="508.310448" y1="309.276659" x2="577.211802" y2="309.276659" id="Stroke-67" stroke="#5046AF" stroke-width="2.067" stroke-linecap="round"></line>
            <line x1="513.934438" y1="340.581971" x2="583.0235" y2="340.581971" id="Stroke-69" stroke="#5046AF" stroke-width="2.067" stroke-linecap="round"></line>
            <line x1="519.49326" y1="370.165984" x2="588.584094" y2="370.165984" id="Stroke-71" stroke="#5046AF" stroke-width="2.067" stroke-linecap="round"></line>
            <line x1="524.218021" y1="399.749997" x2="593.308854" y2="399.749997" id="Stroke-73" stroke="#5046AF" stroke-width="2.067" stroke-linecap="round"></line>
            <line x1="529.647042" y1="429.334011" x2="598.737875" y2="429.334011" id="Stroke-75" stroke="#5046AF" stroke-width="2.067" stroke-linecap="round"></line>
            <line x1="534.918812" y1="458.918201" x2="604.009646" y2="458.918201" id="Stroke-77" stroke="#5046AF" stroke-width="2.067" stroke-linecap="round"></line>
            <line x1="540.060781" y1="488.502215" x2="609.149844" y2="488.502215" id="Stroke-79" stroke="#5046AF" stroke-width="2.067" stroke-linecap="round"></line>
            <line x1="546.036812" y1="518.086228" x2="615.127646" y2="518.086228" id="Stroke-81" stroke="#5046AF" stroke-width="2.067" stroke-linecap="round"></line>
            <line x1="470.285167" y1="100.603872" x2="385.534854" y2="569.53419" id="Stroke-83" stroke="#9F9FFF" stroke-width="2.067" stroke-linecap="round"></line>
            <line x1="455.40999" y1="569.533658" x2="540.160302" y2="100.603341" id="Stroke-85" stroke="#9F9FFF" stroke-width="2.067" stroke-linecap="round"></line>
            <line x1="534.59351" y1="121.445141" x2="466.494344" y2="121.445141" id="Stroke-87" stroke="#9F9FFF" stroke-width="2.067" stroke-linecap="round"></line>
            <line x1="530.052917" y1="152.750276" x2="460.800937" y2="152.750276" id="Stroke-89" stroke="#9F9FFF" stroke-width="2.067" stroke-linecap="round"></line>
            <line x1="523.740604" y1="184.055588" x2="455.106646" y2="184.055588" id="Stroke-91" stroke="#9F9FFF" stroke-width="2.067" stroke-linecap="round"></line>
            <line x1="517.636542" y1="215.3609" x2="449.411646" y2="215.3609" id="Stroke-93" stroke="#9F9FFF" stroke-width="2.067" stroke-linecap="round"></line>
            <line x1="512.733281" y1="246.666035" x2="443.718594" y2="246.666035" id="Stroke-95" stroke="#9F9FFF" stroke-width="2.067" stroke-linecap="round"></line>
            <line x1="508.099365" y1="277.413231" x2="438.124885" y2="277.413231" id="Stroke-97" stroke="#9F9FFF" stroke-width="2.067" stroke-linecap="round"></line>
            <line x1="501.231719" y1="309.276659" x2="432.330365" y2="309.276659" id="Stroke-99" stroke="#9F9FFF" stroke-width="2.067" stroke-linecap="round"></line>
            <line x1="496.511208" y1="340.581971" x2="427.420375" y2="340.581971" id="Stroke-101" stroke="#9F9FFF" stroke-width="2.067" stroke-linecap="round"></line>
            <line x1="491.193219" y1="375.699122" x2="422.102385" y2="375.699122" id="Stroke-103" stroke="#9F9FFF" stroke-width="2.067" stroke-linecap="round"></line>
            <line x1="483.155229" y1="410.816274" x2="414.064396" y2="410.816274" id="Stroke-105" stroke="#9F9FFF" stroke-width="2.067" stroke-linecap="round"></line>
            <line x1="477.15724" y1="445.933603" x2="408.068177" y2="445.933603" id="Stroke-107" stroke="#9F9FFF" stroke-width="2.067" stroke-linecap="round"></line>
            <line x1="471.49925" y1="481.050754" x2="402.408417" y2="481.050754" id="Stroke-109" stroke="#9F9FFF" stroke-width="2.067" stroke-linecap="round"></line>
            <line x1="464.14126" y1="516.508267" x2="395.050427" y2="516.508267" id="Stroke-111" stroke="#9F9FFF" stroke-width="2.067" stroke-linecap="round"></line>
            <path d="M541.069625,30.9007531 C541.459208,34.0580915 530.118792,38.0570326 527.129625,38.4273377 C524.138688,38.795871 521.397438,36.5368326 521.007854,33.3794941 C520.618271,30.2239274 522.727333,27.3642505 525.718271,26.9957172 C528.709208,26.6254121 540.680042,27.7434146 541.069625,30.9007531" id="Fill-113" fill="#41378C"></path>
            <path d="M384.367698,35.6929267 C380.73926,36.3343164 378.31676,39.7999472 378.957802,43.4303549 L385.125615,78.3329421 L387.440094,77.9236574 C389.57749,73.3453395 394.217073,70.0409421 399.940406,70.0923241 C405.357385,70.1419344 410.347594,73.5933908 412.290198,78.6536369 C415.456448,86.8960267 410.287385,95.5158087 402.05301,96.9722241 C397.539156,97.7695318 393.158115,96.2227549 390.140615,93.2124754 L387.827906,93.62176 L394.649156,132.232714 C395.291969,135.863122 398.753948,138.286937 402.382385,137.643775 L437.266031,131.474386 L436.842802,129.077147 C432.266969,126.938591 428.964365,122.296488 429.01749,116.568275 C429.065302,111.148355 432.514885,106.157209 437.572385,104.21355 C445.810302,101.045581 454.425406,106.21745 455.881031,114.454524 C456.677906,118.972601 455.131969,123.35425 452.123323,126.373388 L452.548323,128.770627 L491.136552,121.943901 C494.76499,121.302511 497.18749,117.838652 496.546448,114.206473 L480.855094,25.4058856 C480.212281,21.7737062 476.750302,19.3516626 473.120094,19.9930523 L384.367698,35.6929267 Z" id="Fill-115" fill="#5046AF"></path>
            <path d="M554.026812,69.8182274 C550.265562,74.9475736 543.817958,81.6945685 536.097125,87.52023 C512.484833,104.749163 487.215042,106.490838 466.606083,86.9886915 C465.763167,86.1913838 465.725979,84.8607659 466.524625,84.0173915 C467.206396,83.296271 468.275979,83.1633864 469.099417,83.6399992 L469.195042,83.6949249 C482.633896,91.4553864 494.668479,94.6428454 509.817958,88.2732428 C529.677854,79.7101582 543.770146,59.1077274 542.286187,61.0744197 C544.722854,57.8462095 549.311083,57.2065915 552.537542,59.6445813 C555.733896,62.0595377 556.387333,66.5953326 554.026812,69.8182274" id="Fill-117" fill="#FAB9AF"></path>
            <path d="M531.450813,72.9032767 C536.368417,68.4879638 542.621229,59.7866792 542.621229,59.7866792 C542.621229,59.7866792 545.585604,56.282069 551.686125,58.8369972 C556.557688,60.8798767 555.571333,66.63821 555.571333,66.63821 C555.452688,67.4390613 553.825292,76.9394254 542.623,85.3412767 C542.623,85.3412767 530.625604,73.6438869 531.450813,72.9032767" id="Fill-119" fill="#A5A0AA"></path>
            <path d="M470.594885,84.5806451 C468.981656,82.6972272 468.554885,76.0884323 467.646448,76.0884323 C466.994781,76.0884323 466.877906,78.3705041 466.86374,79.6515118 C466.861969,79.8021144 466.773427,79.9367708 466.637073,79.9970118 C466.500719,80.0590246 466.341344,80.0342195 466.229781,79.934999 C464.396969,78.3208938 459.227906,73.84534 458.694885,74.2723426 C458.154781,74.7046605 460.901344,78.0427221 461.836344,79.1500938 C461.864677,79.1837579 461.866448,79.2315964 461.838115,79.2670323 C461.811552,79.3006964 461.76374,79.3113272 461.724781,79.2918374 C460.279781,78.5600862 455.564052,76.2478938 455.45426,77.2365554 C455.349781,78.1773785 459.44926,80.7943195 461.050094,81.7776656 C461.090823,81.8024708 461.10499,81.852081 461.087281,81.8946041 C461.067802,81.9371272 461.01999,81.9583887 460.975719,81.9459862 C459.180094,81.4144477 454.55999,80.1298964 454.45551,80.9661836 C454.34926,81.8184169 458.815302,83.7319554 460.421448,84.3910631 C460.463948,84.408781 460.486969,84.4530759 460.476344,84.4973708 C460.465719,84.5416656 460.42499,84.5717862 460.380719,84.5682426 C458.795823,84.4442169 454.70874,84.1802195 455.339156,84.8109785 C456.116552,85.5905682 465.960615,88.8099195 468.165302,88.8099195 C470.37176,88.8099195 470.594885,84.5806451 470.594885,84.5806451" id="Fill-121" fill="#FAB9AF"></path>
            <polygon id="Fill-123" fill="#5046AF" points="86.4998958 480.630662 553.502292 480.630662 553.502292 196.326685 86.4998958 196.326685"></polygon>
            <polygon id="Fill-125" fill="#FFFFFF" points="110.188333 459.337231 529.815625 459.337231 529.815625 217.616572 110.188333 217.616572"></polygon>
            <polygon id="Stroke-126" stroke="#827DDC" stroke-width="0.988" points="137.512292 432.583128 245.039062 432.583128 245.039062 278.431659 137.512292 278.431659"></polygon>
            <polygon id="Stroke-127" stroke="#827DDC" stroke-width="0.988" points="269.287083 432.583128 376.813854 432.583128 376.813854 278.431659 269.287083 278.431659"></polygon>
            <polygon id="Stroke-128" stroke="#827DDC" stroke-width="0.988" points="401.061875 432.583128 508.588646 432.583128 508.588646 278.431659 401.061875 278.431659"></polygon>
            <polygon id="Fill-129" fill="#A5C8CD" points="110.188333 221.5535 529.815625 221.5535 529.815625 217.616572 110.188333 217.616572"></polygon>
            <path d="M45.2474479,522.411179 C45.2474479,522.411179 35.6619271,533.449461 33.9017188,535.207082 C32.4478646,536.658182 30.3866146,537.186177 28.4103646,537.74252 C27.7781771,537.9197 26.9547396,538.569948 26.2588021,539.117433 C25.6992188,539.555066 25.4442188,540.240751 25.4566146,540.951241 C25.6832813,553.376838 36.4924479,562.086982 37.0697396,561.360546 C38.1074479,560.047646 37.3158854,556.408379 35.2493229,554.007597 C33.1685938,551.592641 32.6639063,548.187251 33.5918229,545.13622 C34.3302604,542.708861 35.6814063,540.513607 37.5142188,538.761302 L45.8495313,530.954774 L45.2474479,522.411179 Z" id="Fill-130" fill="#FA968C"></path>
            <path d="M23.6921563,573.036674 L180.327677,573.036674 C181.600906,573.036674 182.633302,572.003718 182.633302,570.729797 C182.633302,569.455877 181.600906,568.42292 180.327677,568.42292 L23.6921563,568.42292 C22.4189271,568.42292 21.3865313,569.455877 21.3865313,570.729797 C21.3865313,572.003718 22.4189271,573.036674 23.6921563,573.036674" id="Fill-131" fill="#B4D7DC"></path>
            <path d="M143.229781,538.110168 L150.85499,550.858232 C153.185406,554.754409 154.04249,559.368163 153.272177,563.843716 C153.272177,563.845488 153.272177,563.84726 153.272177,563.84726 C152.836552,566.350806 154.715406,568.655911 157.254781,568.719696 C165.462594,568.923452 181.34874,569.219342 181.807385,568.471645 C184.141344,564.658742 174.093635,562.952504 166.202802,560.278865 C160.881448,558.475178 154.332906,544.061627 150.182073,532.720368 L143.961135,536.662611 C143.48124,536.985078 143.20499,537.532563 143.229781,538.110168" id="Fill-132" fill="#FA968C"></path>
            <path d="M166.048208,564.66831 C169.419875,564.66831 172.860604,563.894035 176.03925,563.265048 C176.404042,563.192405 176.784771,563.218982 177.135396,563.343007 C180.813417,564.650592 183.044667,566.448964 181.806854,568.470582 C181.30925,569.283835 162.623417,568.86392 155.324042,568.669023 C153.799354,568.628271 152.680187,567.242728 152.942271,565.736702 L153.420396,562.997507 C157.546437,564.048182 161.776958,564.66831 166.048208,564.66831" id="Fill-133" fill="#823264"></path>
            <path d="M115.94726,394.144216 C107.518094,392.455695 97.4491354,399.363923 95.2763229,410.219711 C94.0278854,416.4582 92.1879896,439.698834 92.4500729,458.664126 C92.5492396,465.944431 89.0571562,472.946564 82.8415312,476.731118 C81.8286146,477.347703 80.9006979,478.0263 80.0931979,478.763367 C75.9335104,482.563867 56.5889271,506.826826 44.4640312,523.2868 C44.0850729,525.861218 44.4658021,529.420754 45.9037187,531.112818 C61.4233021,518.944131 87.7414271,496.033052 92.1649687,491.991587 C94.6228854,489.746723 97.3694479,487.11738 99.6042396,484.528787 C109.138406,478.136152 124.613719,429.324975 126.628927,419.252321 C128.80174,408.396534 124.376427,395.832736 115.94726,394.144216" id="Fill-134" fill="#FFAA50"></path>
            <path d="M123.800729,323.757007 C123.800729,333.104996 117.930417,340.682963 110.687708,340.682963 C103.445,340.682963 97.5746875,333.104996 97.5746875,323.757007 C97.5746875,314.409017 103.445,306.83105 110.687708,306.83105 C117.930417,306.83105 123.800729,314.409017 123.800729,323.757007" id="Fill-135" fill="#9B14AA"></path>
            <path d="M107.542354,325.503465 C107.333396,316.134214 99.7524583,308.260357 90.4024583,307.725275 C82.107875,307.252206 74.946625,312.337257 72.2655833,319.598073 C71.3252708,322.14237 68.8337083,323.798998 66.1225625,323.758247 C64.9963125,323.742301 63.8381875,323.845065 62.6588125,324.087801 C55.8056875,325.492834 50.4861042,331.28306 49.7636042,338.244442 C49.1137083,344.525455 52.04975,350.157991 56.7707917,353.372026 C58.7824583,354.743396 59.9281875,357.014837 60.2611042,359.428021 C61.8070417,370.593873 71.9964167,378.795511 83.6201667,377.523362 C93.5633958,376.433708 101.51975,368.248016 102.366208,358.278126 C102.885062,352.161891 100.786625,346.552388 97.0962083,342.386898 C103.384437,339.412055 107.708812,332.962721 107.542354,325.503465" id="Fill-136" fill="#9B14AA"></path>
            <path d="M223.114198,327.869165 C219.80274,327.160447 216.755135,328.572568 215.055135,330.996383 L213.08951,330.996383 L213.08951,312.86915 C213.08951,309.545263 210.396073,306.852135 207.07399,306.852135 L186.799719,306.852135 L186.799719,304.837604 C189.22399,303.136681 190.635344,300.087422 189.92701,296.774165 C189.316073,293.919804 187.024615,291.582806 184.180656,290.932558 C179.101906,289.773804 174.596906,293.602653 174.596906,298.485719 C174.596906,301.115063 175.905552,303.434342 177.904823,304.837604 L177.904823,306.852135 L159.787427,306.852135 C156.465344,306.852135 153.773677,309.545263 153.773677,312.86915 L153.773677,330.996383 L155.121281,330.996383 C156.821281,328.572568 159.867115,327.160447 163.178573,327.869165 C166.031385,328.478663 168.367115,330.771365 169.01701,333.616868 C170.176906,338.698376 166.350135,343.207594 161.469719,343.207594 C158.841802,343.207594 156.523781,341.896465 155.121281,339.896109 L153.773677,339.896109 L153.773677,360.181388 C153.773677,363.505276 156.465344,366.200176 159.787427,366.200176 L177.904823,366.200176 L177.904823,364.804001 C175.482323,363.103078 174.070969,360.053819 174.779302,356.740563 C175.39024,353.886201 177.681698,351.549204 180.525656,350.898955 C185.604406,349.740201 190.109406,353.56905 190.109406,358.452117 C190.109406,361.08146 188.79899,363.40074 186.799719,364.804001 L186.799719,366.200176 L207.07399,366.200176 C210.396073,366.200176 213.08951,363.505276 213.08951,360.181388 L213.08951,339.896109 L215.055135,339.896109 C216.457635,341.896465 218.775656,343.207594 221.403573,343.207594 C226.28399,343.207594 230.11076,338.700147 228.952635,333.61864 C228.30274,330.773137 225.96701,328.480435 223.114198,327.869165" id="Fill-137" fill="#05CDFF"></path>
            <path d="M110.687708,301.278954 C110.687708,301.278954 118.066771,305.9246 117.168958,312.184351 C117.168958,312.184351 121.109063,309.392003 122.001563,299.7747 C122.617813,293.109208 110.687708,301.278954 110.687708,301.278954" id="Fill-138" fill="#9B14AA"></path>
            <path d="M128.343625,339.417547 C128.196646,342.360498 128.356021,345.370778 128.777479,348.294239 C129.177687,351.203527 129.863,354.093324 130.867062,356.488791 C131.359354,357.686524 131.920708,358.714165 132.443104,359.495527 C132.976125,360.275116 133.379875,360.523168 133.3055,360.609986 C133.201021,360.684401 133.133729,360.923593 133.8155,360.689716 C134.107687,360.647193 134.530917,360.303465 134.961229,360.069588 C135.398625,359.711686 135.869667,359.341381 136.335396,358.884257 C138.212479,356.984893 140.038208,354.357322 141.594771,351.518906 C143.181437,348.692893 144.624667,345.668439 145.977583,342.567798 C148.642687,336.345255 150.974875,329.839224 153.135292,323.251691 L153.142375,323.233973 C153.539042,322.020293 154.845917,321.361186 156.057167,321.758068 C157.132062,322.110655 157.773104,323.179047 157.627896,324.261614 C156.694667,331.246029 155.534771,338.23576 153.756854,345.209545 C153.353104,346.960078 152.797062,348.696437 152.315396,350.448742 C151.72925,352.186873 151.194458,353.933863 150.493208,355.675537 C149.168625,359.164201 147.557167,362.661724 145.037271,366.164563 C144.389146,367.038057 143.629458,367.908009 142.829042,368.765557 C141.899354,369.616019 141.0405,370.466481 139.763729,371.207091 L138.862375,371.759891 C138.540083,371.935298 138.155812,372.082357 137.798104,372.234732 C137.052583,372.523534 136.369042,372.846001 135.487167,372.980657 C133.83675,373.361593 131.968521,373.361593 130.275604,372.996604 C126.813625,372.236504 124.293729,370.315878 122.515812,368.517506 C120.750292,366.676611 119.404458,364.766616 118.326021,362.858393 C114.196437,355.211327 112.622167,347.459724 112.248521,339.417547 L112.24675,339.39097 C112.041333,334.943765 115.47675,331.169842 119.923312,330.964314 C124.368104,330.758786 128.138208,334.196068 128.345396,338.643273 C128.356021,338.900183 128.356021,339.165952 128.343625,339.417547" id="Fill-139" fill="#FAB9AF"></path>
            <path d="M118.946167,371.849012 C121.898146,362.947515 127.837521,344.099161 127.329292,337.93863 C127.003458,333.992843 123.707938,330.970161 119.750125,330.970161 L94.0695,330.970161 C89.8124167,330.970161 86.3291875,334.347202 86.2052292,338.606597 C85.9874167,346.048135 89.4139792,362.984722 91.3424167,371.849012 L118.946167,371.849012 Z" id="Fill-140" fill="#FAB9AF"></path>
            <path d="M113.883708,412.0358 C116.837458,422.705549 140.848187,498.552544 132.562458,500.84879 C124.2785,503.143264 79.186,429.091098 78.6104792,418.035098 C78.0650625,407.547844 84.1390208,396.187095 92.42475,393.890849 C100.708708,391.594603 110.929958,401.366052 113.883708,412.0358" id="Fill-141" fill="#FAB9AF"></path>
            <path d="M151.011708,535.739329 C151.318062,535.379655 151.388896,534.872921 151.22775,534.428201 C144.808479,516.648239 136.191604,494.125183 134.353479,489.871103 C134.144521,489.38386 133.921396,488.909019 133.687646,488.44658 C130.553271,465.960732 116.129833,420.150975 113.884417,412.036155 C110.930667,401.366406 100.709417,391.594957 92.4236875,393.891203 C84.1397292,396.185678 78.064,407.548198 78.6111875,418.035452 C78.9706667,424.956083 96.7693125,456.554273 112.067542,478.664501 C115.288687,483.319006 117.310979,488.662739 118.295562,494.238578 C118.975562,498.094003 120.062854,501.938798 121.277646,504.750637 C123.087437,508.93916 133.698271,524.920749 143.177542,538.47498 C143.45025,538.866547 143.912437,539.09688 144.388792,539.049042 C146.903375,538.792132 149.279833,537.773349 151.011708,535.739329" id="Fill-142" fill="#FAC855"></path>
            <path d="M88.4047813,383.133042 C89.7329063,379.401642 90.1331146,375.408016 89.5753021,371.485263 C88.2790521,362.380009 86.0141563,345.225491 86.2231146,337.943414 C86.3346771,334.050781 89.5221771,330.969629 93.4144688,330.969629 L97.2235313,330.969629 C98.6738438,334.336039 101.74624,336.935263 106.523948,336.935263 C111.294573,336.935263 114.36874,334.336039 115.820823,330.969629 L119.396135,330.969629 C115.510927,339.293522 116.908115,350.275106 123.59301,356.681916 C122.349885,361.075968 121.305094,365.496596 120.524156,369.080937 C119.465198,373.933883 119.932698,378.992357 121.843427,383.577763 C125.124781,391.458706 127.726135,404.096919 126.952281,409.105783 C99.9382188,416.767024 81.2576979,403.20925 81.2576979,403.20925 L88.4047813,383.133042 Z" id="Fill-143" fill="#39AE96"></path>
            <path d="M120.523802,369.080405 C120.787656,367.872041 121.09224,366.544967 121.41276,365.177141 C117.525781,364.206198 113.702552,362.930505 109.973177,361.295139 C102.11776,357.850769 92.0859896,352.255441 86.4476562,344.537503 C86.6034896,346.754018 86.8230729,349.192008 87.0869271,351.723903 C89.8600521,358.194498 92.8332812,364.441846 98.2892187,369.305423 C104.820052,375.129313 112.774635,378.981195 121.099323,381.506003 C119.83849,377.492887 119.622448,373.214003 120.523802,369.080405" id="Fill-144" fill="#1C9585"></path>
            <polygon id="Fill-145" fill="#FAB9AF" points="110.687708 332.738766 99.0373958 331.514456 102.724271 318.759305 110.259167 319.693041"></polygon>
            <path d="M110.259167,319.692686 L102.724271,318.758951 L101.573229,322.741945 C103.260833,324.644853 105.428333,328.755417 108.169583,328.755417 C109.039062,328.755417 109.832396,328.509138 110.544271,328.05733 L110.259167,319.692686 Z" id="Fill-146" fill="#FA968C"></path>
            <path d="M110.519125,325.858355 C107.960271,325.858355 105.192458,324.577348 101.381625,321.244602 C99.192875,319.332835 97.5725625,315.996545 97.5725625,313.742822 L97.5725625,301.278245 L116.750687,301.278245 C116.750687,301.278245 118.190375,307.897671 116.793187,314.463943 C115.744854,319.391304 112.530792,325.858355 110.519125,325.858355" id="Fill-147" fill="#FAB9AF"></path>
            <path d="M100.82399,311.385803 C100.82399,313.818478 99.6605521,315.788714 98.2261771,315.788714 C96.7900313,315.788714 95.2069063,312.601255 95.2069063,310.170352 C95.2069063,307.737678 96.7900313,306.982893 98.2261771,306.982893 C99.6605521,306.982893 100.82399,308.953129 100.82399,311.385803" id="Fill-148" fill="#FAB9AF"></path>
            <path d="M95.2074375,302.7887 C95.2074375,298.896067 98.3612917,295.742272 102.251812,295.744044 L108.724208,295.745816 C110.5765,295.745816 112.372125,295.262116 113.946396,294.367359 C116.230771,293.070405 119.117229,293.502723 120.675562,295.618246 C122.359625,297.903862 123.089208,300.965523 118.817958,303.800395 C116.694729,305.208972 113.590458,303.648021 111.522125,304.324846 C111.394625,304.319531 111.281292,304.298269 111.148479,304.298269 L105.442854,304.298269 C103.459521,304.298269 101.943687,305.919462 101.88525,307.903872 C101.849833,309.156531 100.82275,310.162911 99.5601458,310.162911 L99.3069167,310.162911 L98.3931667,307.234134 L95.2074375,311.530736 L95.2074375,302.7887 Z" id="Fill-149" fill="#9B14AA"></path>
            <path d="M158.225729,316.552889 C158.225729,316.552889 159.56625,323.17763 157.680312,324.256653 C155.794375,325.337448 154.331667,325.716612 152.658229,323.028799 C150.984792,320.342758 149.970104,315.858345 149.8975,313.048278 C149.826667,310.238212 151.694896,305.477399 152.231458,305.100007 C154.184687,303.725094 153.779167,308.829635 153.703021,311.310148 C153.626875,313.792432 153.788021,316.602499 154.992187,316.301294 C156.196354,316.000089 155.983854,311.235732 157.248229,310.434881 C158.514375,309.63403 158.225729,316.552889 158.225729,316.552889" id="Fill-150" fill="#FAB9AF"></path>
            <path d="M186.840094,361.61105 C186.840094,361.61105 180.172906,360.521396 179.165302,362.447337 C178.159469,364.373278 177.835406,365.850955 180.581969,367.422537 C183.328531,368.994119 187.845927,369.839265 190.65624,369.803829 C193.464781,369.770165 198.148635,367.72197 198.506344,367.170942 C199.804365,365.167042 194.722073,365.764137 192.246448,365.934229 C189.770823,366.104322 186.95874,366.049396 187.21374,364.833945 C187.46874,363.620265 192.234052,363.652157 192.986656,362.356975 C193.73926,361.060022 186.840094,361.61105 186.840094,361.61105" id="Fill-151" fill="#FAB9AF"></path>
            <path d="M115.321448,301.060492 C114.678635,303.907766 115.627802,305.465174 106.299052,309.908835 C96.9703021,314.354268 94.0183229,312.454904 91.1053021,317.240522 C91.1053021,317.240522 92.3785312,309.313512 97.5298854,306.593807 C102.68301,303.87233 111.618635,302.09522 114.483844,295.796489 C114.483844,295.796489 115.760615,299.115061 115.321448,301.060492" id="Fill-152" fill="#9B14AA"></path>
            <path d="M99.1863229,338.195009 C99.1827813,338.127681 99.1739271,338.062124 99.1562188,337.998339 L99.2022604,338.134768 L99.2854896,338.448375 C99.4005938,338.730091 99.5174688,339.018893 99.6166354,339.309468 C99.8822604,339.908334 100.167365,340.558583 100.51799,341.185798 C100.94299,341.804155 101.256427,342.466806 101.734552,343.078075 C102.226844,343.685801 102.72799,344.286439 103.186635,344.929601 C104.374865,346.056463 105.366531,347.351645 106.811531,348.345622 L108.835594,349.954411 L111.128823,351.34527 C117.28601,355.112106 124.76601,357.557183 132.49924,359.44946 C134.457781,359.853429 136.455281,360.167037 138.440385,360.53557 C140.432573,360.875755 142.414135,361.316932 144.46476,361.446273 L150.586531,362.050455 L153.660698,362.397727 L156.763198,362.534155 L162.99299,362.810555 C165.07549,362.918634 167.15976,363.003681 169.254656,362.957614 C173.442677,362.959386 177.641323,362.900916 181.875385,362.966473 L182.004656,362.968245 C183.279656,362.987734 184.297885,364.036637 184.276962,365.312329 C184.260698,366.412614 183.476219,367.319773 182.443823,367.537704 C178.25226,368.418286 174.027052,369.176614 169.791219,369.995183 C167.678615,370.459393 165.532365,370.652519 163.384344,370.90057 L156.924344,371.634093 L153.683719,371.999083 L150.411219,372.139055 L143.844969,372.332181 C141.654448,372.466837 139.440906,372.280798 137.223823,372.186893 C135.00851,372.066411 132.784344,371.997311 130.554865,371.825447 C121.644031,370.820839 112.533094,368.905529 103.815281,364.506163 L100.579969,362.773347 C99.5351771,362.096522 98.5080938,361.359455 97.4756979,360.641878 C95.3630938,359.305945 93.5037188,357.420755 91.5841354,355.686168 C90.6951771,354.695734 89.8469479,353.66455 88.9916354,352.640452 C88.1540313,351.596865 87.4421563,350.390273 86.6842396,349.256324 C85.9705938,348.060363 85.3366354,346.788214 84.7380938,345.462911 L83.9500729,343.352704 L83.6100729,342.135481 L83.4471563,341.506493 L83.2612188,340.532006 C82.6166354,336.130868 85.6589271,332.041565 90.0559063,331.396632 C94.4528854,330.751698 98.5417396,333.795642 99.1863229,338.195009" id="Fill-153" fill="#FAB9AF"></path>
            <path d="M113.527594,301.590967 C113.527594,301.590967 113.88176,311.181693 122.257802,315.788359 C122.257802,315.788359 118.567385,308.539946 118.818844,303.800395 C119.070302,299.059072 112.975094,298.314918 113.527594,301.590967" id="Fill-154" fill="#9B14AA"></path>
            <path d="M21.4527604,543.085545 C21.1375521,542.30064 21.4350521,541.407655 22.1610937,540.975337 C22.7543229,540.62275 24.3445312,539.641176 25.5416146,538.904109 C26.0604687,538.585186 26.7121354,538.925371 26.7811979,539.531324 C27.5568229,546.395258 30.6664062,552.616029 36.5013021,555.582014 C38.0242187,557.614263 38.2402604,561.088753 37.4185937,562.127024 C37.2255729,562.371532 34.4931771,561.467917 32.2017187,558.840345 C22.0229687,547.174847 21.4527604,543.085545 21.4527604,543.085545" id="Fill-155" fill="#823264"></path>
            <path d="M640.042031,507.261802 C639.638281,507.180299 639.246927,507.098796 638.89099,507.022609 C637.93474,506.820625 636.709323,506.841886 635.630885,506.932248 C633.819323,507.084622 632.00599,506.755068 630.376823,505.950673 L623.624635,502.621471 C620.771823,501.216437 617.717135,504.129268 618.983281,507.047414 C619.091302,507.297237 619.291406,507.49745 619.539323,507.607302 L627.527552,511.149119 C629.843802,512.176761 631.882031,513.739484 633.475781,515.707948 L635.740677,518.505612 C640.555573,515.495332 639.886198,510.052378 640.042031,507.261802" id="Fill-156" fill="#FAB9AF"></path>
            <path d="M637.11449,530.528126 C637.440323,526.690418 635.703135,520.33499 634.881469,518.208836 C636.940948,514.420739 637.011781,510.352698 635.759802,506.692169 C636.81699,506.607123 637.994594,506.587634 638.926052,506.786075 C640.204594,507.057159 643.163656,507.514282 644.378448,507.749931 C645.235531,507.91648 645.837615,508.681895 645.803969,509.55539 C645.803969,509.55539 641.98251,537.236141 641.134281,536.709918 C639.66449,535.797444 636.836469,533.800631 637.11449,530.528126" id="Fill-157" fill="#46738C"></path>
            <path d="M381.622375,575 L479.370604,575 C480.643833,575 481.676229,573.967044 481.676229,572.693123 L481.676229,572.693123 C481.676229,571.419203 480.643833,570.386246 479.370604,570.386246 L381.622375,570.386246 C380.349146,570.386246 379.31675,571.419203 379.31675,572.693123 L379.31675,572.693123 C379.31675,573.967044 380.349146,575 381.622375,575" id="Fill-158" fill="#B4D7DC"></path>
            <path d="M541.183135,575 L647.440219,575 C648.842719,575 649.981365,573.860736 649.981365,572.455703 C649.981365,571.052441 648.842719,569.913177 647.440219,569.913177 L541.183135,569.913177 C539.778865,569.913177 538.64199,571.052441 538.64199,572.455703 C538.64199,573.860736 539.778865,575 541.183135,575" id="Fill-159" fill="#B4D7DC"></path>
            <path d="M492.760583,479.873928 C490.616104,488.364369 475.525063,555.159264 478.507146,555.221311 C481.092563,555.274431 508.559958,492.900164 510.704438,484.409723 C512.848917,475.921054 510.569854,468.022392 505.615063,466.769733 C500.660271,465.517074 494.905063,471.383487 492.760583,479.873928" id="Fill-160" fill="#41B5E6"></path>
            <path d="M525.811771,412.048026 C518.556667,420.896369 486.13625,478.908477 493.007083,484.5481 C499.877917,490.189495 544.821667,442.157908 552.076771,433.309564 C559.333646,424.461221 558.260521,411.877933 551.389688,406.23831 C544.518854,400.598687 533.066875,403.199682 525.811771,412.048026" id="Fill-161" fill="#41B5E6"></path>
            <path d="M482.294604,564.500875 C482.317625,564.089819 482.338875,563.689393 482.361896,563.326175 C482.422104,562.349916 482.220229,561.141552 481.972313,560.087334 C481.557938,558.317311 481.618146,556.472873 482.174188,554.741829 L484.4745,547.571375 C485.446688,544.543378 482.117521,541.945926 479.418771,543.62736 C479.188563,543.770875 479.018563,543.997665 478.945958,544.259891 L476.615542,552.684775 C475.940854,555.12808 474.694188,557.374716 472.981792,559.240416 L470.548667,561.892793 C474.230229,566.215973 479.512625,564.756014 482.294604,564.500875" id="Fill-162" fill="#FAB9AF"></path>
            <path d="M458.863115,565.01505 C462.704052,564.774086 468.73374,562.123481 470.715302,560.998391 C474.763427,562.481383 478.793844,561.953388 482.22926,560.179822 C482.468323,561.21455 482.661344,562.375076 482.602906,563.326529 C482.521448,564.632342 482.50374,567.626676 482.448844,568.863388 C482.409885,569.736883 481.74051,570.443829 480.872802,570.541278 C480.872802,570.541278 452.94499,570.815906 453.339885,569.899888 C454.02874,568.310588 455.587073,565.220578 458.863115,565.01505" id="Fill-163" fill="#46738C"></path>
            <path d="M510.70426,484.410432 C509.379677,489.658488 492.97999,530.342442 484.16124,549.297103 C481.50499,548.283637 480.021031,548.366911 477.311656,547.514678 C480.764781,529.713455 486.94499,489.968552 488.979677,481.393065 C489.866865,469.44408 519.085615,420.250196 525.81124,412.048557 C533.066344,403.200214 544.518323,400.597447 551.389156,406.238842 C558.25999,411.878465 559.333115,424.461752 552.07624,433.310096 C547.383531,439.034765 511.600302,480.863298 510.70426,484.410432" id="Fill-164" fill="#695A6E"></path>
            <path d="M551.389865,406.238133 C544.519031,400.59851 533.067052,403.199505 525.811948,412.047848 C525.225802,412.761882 524.453719,413.819643 523.557677,415.107738 C530.111531,428.155236 532.330385,442.590048 531.985073,457.249879 C540.982677,446.449018 549.89351,435.972395 552.076948,433.309387 C559.332052,424.461043 558.260698,411.877756 551.389865,406.238133" id="Fill-165" fill="#614C69"></path>
            <path d="M545.880094,484.7554 C545.880094,484.7554 545.87124,484.748313 545.87124,484.748313 C545.864156,484.73591 545.858844,484.719964 545.853531,484.709333 C545.559573,484.147674 545.34176,483.584244 545.182385,483.019041 C540.342698,468.671046 541.72749,416.569646 543.296448,405.997346 C543.714365,403.187279 544.550198,400.586285 545.676448,398.240428 L561.105719,406.642279 C564.980302,411.031015 569.557906,414.913018 574.77124,418.061497 C575.555719,418.534567 574.505615,416.482828 575.307802,416.902744 C573.083635,430.611121 570.184781,457.801085 569.093948,471.39961 C568.846031,474.489621 570.597385,477.382962 573.45374,478.582467 C587.832906,484.627831 613.479885,496.373059 627.772281,504.089226 L627.285302,512.186328 C606.423115,507.811767 564.746552,495.414518 558.419365,493.566536 C552.446344,491.82309 547.80676,488.391123 545.880094,484.7554" id="Fill-166" fill="#828291"></path>
            <path d="M533.151697,353.191126 C533.110438,354.071708 533.053771,354.486308 532.990021,355.078088 C532.9245,355.616713 532.851896,356.151795 532.766896,356.665616 C532.602208,357.707431 532.405646,358.717354 532.178979,359.718418 C531.71325,361.715231 531.183771,363.681924 530.473667,365.595462 C529.090646,369.426083 527.206479,373.100785 524.877833,376.499088 C520.197521,383.292149 513.379813,388.644742 505.986583,391.522136 C502.306792,393.028162 498.504813,393.933549 494.750646,394.472175 C490.991167,395.090531 487.256479,395.113565 483.587313,395.032062 C476.247208,394.757434 469.19575,393.338226 462.397521,391.442406 C461.126063,391.088047 460.384083,389.769831 460.736479,388.497683 C461.049917,387.376136 462.110646,386.665647 463.228042,386.756008 L463.259917,386.759552 C470.033354,387.301721 476.789083,387.354875 483.249083,386.541621 C489.668354,385.618516 495.875125,384.015042 500.936167,380.93389 C506.025542,377.941329 509.999292,373.813047 512.533354,368.814813 C513.829604,366.341388 514.837208,363.687239 515.480021,360.919695 C515.827104,359.546554 516.083875,358.143293 516.271583,356.754206 C516.365438,356.059662 516.4345,355.363347 516.477,354.691836 C516.501792,354.34988 516.514188,354.025642 516.523042,353.704947 C516.528354,353.435634 516.531896,352.989142 516.514188,353.006859 C516.563771,348.410824 520.328563,344.72549 524.923875,344.776872 C529.517417,344.826483 533.202521,348.593318 533.151697,353.191126" id="Fill-167" fill="#FA968C"></path>
            <path d="M507.766619,365.217007 C509.192146,362.151802 514.720688,350.197502 515.407771,347.286443 L515.441417,347.141155 C515.496313,346.90905 515.563604,346.675173 515.63975,346.44484 C517.090063,342.075594 521.804021,339.710248 526.170896,341.161348 C530.537771,342.612448 532.901833,347.330737 531.451521,351.698212 C530.091521,355.796373 528.681938,359.196448 527.024438,362.803822 C525.894646,365.19043 524.658604,367.529199 523.369438,369.843163 C521.945688,368.749966 507.756,365.24004 507.766619,365.217007" id="Fill-168" fill="#AAC85A"></path>
            <path d="M526.149292,422.104911 C533.041375,427.795916 561.812104,426.642477 572.488458,426.001087 C575.173042,425.838082 577.197104,423.405408 576.752625,420.751259 C575.61575,413.975916 570.907104,402.313962 568.075542,390.201972 C563.999083,372.749793 560.110333,353.384075 558.065021,342.910995 C557.220333,338.591359 553.094292,335.731682 548.75575,336.451031 L522.563354,340.784841 C518.525854,341.452808 515.674813,345.095618 516.007729,349.176062 C516.698354,357.622208 517.897208,372.299757 519.064188,386.690275 C520.247104,401.293408 518.795021,416.031198 526.149292,422.104911" id="Fill-169" fill="#FAB9AF"></path>
            <path d="M522.314375,340.82577 L526.569688,340.122367 C528.618542,343.309826 532.192083,345.441295 537.058333,344.636901 C541.929896,343.830734 544.626875,340.659221 545.538854,336.982747 L549.422292,336.339585 C553.394271,335.682249 557.164375,338.292103 557.934688,342.244977 C559.941042,352.546193 563.909479,372.372577 568.07625,390.202149 C570.952083,402.509036 575.680208,413.818403 576.740938,420.694739 C577.157083,423.389639 575.136563,425.841803 572.416563,426.004808 C561.685313,426.64797 533.026146,427.78369 526.15,422.105088 C518.795729,416.031375 520.247813,401.293585 519.063125,386.690452 C517.88375,372.154647 516.674271,357.326495 515.987188,348.922872 C515.664896,344.984172 518.416771,341.470703 522.314375,340.82577" id="Fill-170" fill="#82BE50"></path>
            <path d="M536.224802,326.52455 L536.715323,326.384578 C540.446469,325.312643 542.603344,321.416466 541.53376,317.683294 L538.668552,307.692143 L531.420531,309.77223 L536.224802,326.52455 Z" id="Fill-171" fill="#CD5014"></path>
            <polygon id="Fill-172" fill="#FAB9AF" points="530.35201 340.839058 542.983365 339.912409 543.427844 338.094548 536.031073 324.802543 527.258365 328.54103"></polygon>
            <path d="M527.258719,328.540321 L536.031427,324.803606 L539.002885,330.142024 C537.625177,333.022962 535.949969,336.217508 532.640281,337.167191 C531.591948,337.468396 530.412573,337.381578 529.396115,337.082144 L527.258719,328.540321 Z" id="Fill-173" fill="#FA968C"></path>
            <path d="M531.63551,333.975834 L531.63551,333.975834 C537.773219,332.214669 541.320198,325.807859 539.55999,319.66859 L536.007698,307.281972 L516.94999,312.753275 C516.94999,312.753275 519.721344,322.421959 522.981448,328.548826 C525.426969,333.144862 528.506448,334.874134 531.63551,333.975834" id="Fill-174" fill="#FAB9AF"></path>
            <polygon id="Fill-175" fill="#CD5014" points="534.805125 312.769752 538.387521 311.742111 538.85325 313.366847 535.270854 314.394488"></polygon>
            <path d="M535.656188,318.253457 C536.348583,320.670186 538.066292,322.296693 539.493583,321.887409 C540.919104,321.478124 541.583167,317.860119 540.890771,315.443391 C540.198375,313.026663 538.409833,312.727229 536.984313,313.136514 C535.557021,313.545798 534.963792,315.836729 535.656188,318.253457" id="Fill-176" fill="#FAB9AF"></path>
            <path d="M517.087938,318.226526 C516.20075,316.812634 515.641167,315.216247 515.453458,313.556075 C515.453458,313.556075 513.790646,308.047565 515.657104,306.37499 C517.355333,304.849475 521.070542,305.113472 523.347833,304.966413 C525.017729,304.858334 529.7795,303.116659 529.7795,303.116659 C533.645229,302.005744 537.679188,304.241749 538.787729,308.107806 L539.218042,309.608516 L536.889396,313.433821 L536.816792,316.605334 L536.563563,316.677977 C535.336375,317.030565 534.057833,316.362598 533.636375,315.175495 C532.936896,313.217662 531.082833,311.943742 529.085333,312.517803 L523.376167,314.156713 C519.901792,315.154234 518.630333,317.53907 519.375854,320.140065 L520.185125,322.289252 L517.087938,318.226526 Z" id="Fill-177" fill="#CD5014"></path>
            <path d="M461.228094,347.421808 L460.069969,344.454051 C462.076323,341.429597 462.726219,337.565313 461.545073,333.897697 C459.47674,327.469626 451.876323,323.780749 445.556219,326.149638 C439.129865,328.557508 435.935281,335.749223 438.423302,342.122369 C439.937365,345.997285 443.202781,348.662064 446.956948,349.578082 L448.116844,352.54761 L415.76726,365.191138 C412.948094,366.293195 411.556219,369.471795 412.657677,372.292492 L425.18101,404.367295 L423.45976,405.038805 C420.436948,403.02959 416.57476,402.381113 412.909135,403.5629 C406.484552,405.632356 402.797677,413.2369 405.165281,419.560436 C407.571844,425.988508 414.759656,429.186597 421.129344,426.697226 C425.002156,425.182341 427.66549,421.915151 428.58101,418.157174 L430.30226,417.485664 L442.825594,449.558695 C443.927052,452.379392 447.103927,453.772023 449.923094,452.669967 L527.147365,422.485669 C529.966531,421.383613 531.358406,418.205013 530.258719,415.384315 L500.089031,338.118113 C498.987573,335.297415 495.810698,333.904785 492.991531,335.006841 L461.228094,347.421808 Z" id="Fill-178" fill="#FA735F"></path>
            <path d="M561.374354,343.993562 C562.474042,364.732421 550.866229,389.333793 526.437583,395.326003 C507.020396,400.131111 486.128104,394.7608 467.699042,386.894031 C466.486021,386.376667 465.921125,384.971634 466.439979,383.757954 C466.895083,382.68779 468.037271,382.122587 469.131646,382.356464 L469.163521,382.363552 C494.805187,387.804734 527.567375,391.373128 539.699354,367.98898 C545.847687,356.491803 544.737375,342.574354 544.763937,344.541046 C544.624042,333.76499 560.788208,333.238767 561.374354,343.993562" id="Fill-179" fill="#FAB9AF"></path>
            <path d="M542.260688,360.47214 C544.19975,351.684037 544.472458,344.568509 544.477771,344.437396 L544.476,344.687219 L545.8785,339.095435 C545.8785,339.095435 548.552458,334.614566 555.866,336.349153 C561.707979,337.732925 561.669021,344.373612 561.669021,344.373612 C561.684958,345.294945 563.797563,351.935632 558.070688,366.352727 C558.070688,366.352727 541.98975,361.703537 542.260688,360.47214" id="Fill-180" fill="#AAC85A"></path>
            <path d="M470.530073,382.71419 C468.916844,380.830772 468.490073,374.221977 467.581635,374.221977 C466.929969,374.221977 466.813094,376.504049 466.798927,377.785056 C466.797156,377.935659 466.708615,378.070315 466.57226,378.130556 C466.435906,378.192569 466.276531,378.167764 466.164969,378.068544 C464.332156,376.454438 459.163094,371.978885 458.630073,372.405887 C458.089969,372.838205 460.836531,376.176267 461.771531,377.283638 C461.799865,377.317303 461.801635,377.365141 461.773302,377.400577 C461.74674,377.434241 461.698927,377.444872 461.659969,377.425382 C460.214969,376.693631 455.49924,374.381438 455.389448,375.3701 C455.284969,376.310923 459.384448,378.927864 460.985281,379.91121 C461.02601,379.936015 461.040177,379.985626 461.022469,380.028149 C461.00299,380.070672 460.955177,380.091933 460.910906,380.077759 C459.115281,379.546221 454.495177,378.263441 454.390698,379.099728 C454.282677,379.951962 458.75049,381.8655 460.356635,382.524608 C460.399135,382.542326 460.422156,382.586621 460.411531,382.630915 C460.400906,382.67521 460.360177,382.705331 460.315906,382.701787 C458.73101,382.577762 454.643927,382.313764 455.274344,382.944523 C456.05174,383.724113 465.895802,386.943464 468.10049,386.943464 C470.306948,386.943464 470.530073,382.71419 470.530073,382.71419" id="Fill-181" fill="#FAB9AF"></path>
            <polygon id="Fill-182" fill="#C8E6EB" points="280.168854 311.509297 364.800521 311.509297 364.800521 291.663423 280.168854 291.663423"></polygon>
            <polygon id="Fill-183" fill="#C8E6EB" points="280.168854 341.278995 364.800521 341.278995 364.800521 321.433121 280.168854 321.433121"></polygon>
            <polygon id="Fill-184" fill="#C8E6EB" points="280.168854 371.048692 364.800521 371.048692 364.800521 351.202818 280.168854 351.202818"></polygon>
            <polygon id="Fill-185" fill="#C8E6EB" points="280.168854 400.81839 364.800521 400.81839 364.800521 380.972515 280.168854 380.972515"></polygon>
            <polygon id="Fill-186" fill="#C8E6EB" points="137.351146 261.893726 508.939271 261.893726 508.939271 240.063441 137.351146 240.063441"></polygon>
            <path d="M308.199198,250.579398 L194.449719,250.579398 C188.698052,250.579398 184.035448,245.914262 184.035448,240.159472 L184.035448,213.896157 C184.035448,208.141367 188.698052,203.476231 194.449719,203.476231 L308.199198,203.476231 C313.950865,203.476231 318.613469,208.141367 318.613469,213.896157 L318.613469,240.159472 C318.613469,245.914262 313.950865,250.579398 308.199198,250.579398" id="Fill-187" fill="#39AE96"></path>
            <polygon id="Fill-188" fill="#39AE96" points="290.950219 258.113956 283.30199 250.461574 290.950219 242.810963 298.598448 250.461574"></polygon>
            <polygon id="Fill-189" fill="#FFFFFF" points="200.020938 219.096021 299.699375 219.096021 299.699375 215.401828 200.020938 215.401828"></polygon>
            <polygon id="Fill-190" fill="#FFFFFF" points="200.020938 228.885187 299.699375 228.885187 299.699375 225.190995 200.020938 225.190995"></polygon>
            <polygon id="Fill-191" fill="#FFFFFF" points="200.020938 238.676126 299.699375 238.676126 299.699375 234.981933 200.020938 234.981933"></polygon>
            <polygon id="Fill-192" fill="#41A0D7" points="284.817292 404.905921 295.631771 404.905921 295.631771 394.085569 284.817292 394.085569"></polygon>
            <path d="M303.955396,429.354386 C303.955396,452.807635 284.952583,471.818994 261.513833,471.818994 C238.073313,471.818994 219.0705,452.807635 219.0705,429.354386 C219.0705,405.901138 238.073313,386.889779 261.513833,386.889779 C284.952583,386.889779 303.955396,405.901138 303.955396,429.354386" id="Fill-193" fill="#05CDFF"></path>
            <path d="M248.723104,429.482133 C248.723104,431.388584 247.177167,432.935361 245.27175,432.935361 C243.366333,432.935361 241.822167,431.388584 241.822167,429.482133 C241.822167,427.575682 243.366333,426.028905 245.27175,426.028905 C247.177167,426.028905 248.723104,427.575682 248.723104,429.482133" id="Fill-194" fill="#FFFFFF"></path>
            <path d="M263.853281,429.482133 C263.853281,431.388584 262.309115,432.935361 260.401927,432.935361 C258.49651,432.935361 256.952344,431.388584 256.952344,429.482133 C256.952344,427.575682 258.49651,426.028905 260.401927,426.028905 C262.309115,426.028905 263.853281,427.575682 263.853281,429.482133" id="Fill-195" fill="#FFFFFF"></path>
            <path d="M278.983458,429.482133 C278.983458,431.388584 277.439292,432.935361 275.532104,432.935361 C273.626687,432.935361 272.082521,431.388584 272.082521,429.482133 C272.082521,427.575682 273.626687,426.028905 275.532104,426.028905 C277.439292,426.028905 278.983458,427.575682 278.983458,429.482133" id="Fill-196" fill="#FFFFFF"></path>
        </g>
    </g>
</svg>